<mxfile host="Electron" modified="2024-07-16T00:18:56.613Z" agent="Mozilla/5.0 (Macintosh; Intel Mac OS X 10_15_7) AppleWebKit/537.36 (KHTML, like Gecko) draw.io/24.2.5 Chrome/120.0.6099.109 Electron/28.1.0 Safari/537.36" etag="C-MVaL6Ctu0hKe67I_ZI" version="24.2.5" type="device">
  <diagram name="Page-1" id="vm3aiB5RT00-OFFkgS_O">
    <mxGraphModel dx="2076" dy="1302" grid="0" gridSize="10" guides="1" tooltips="1" connect="1" arrows="1" fold="1" page="0" pageScale="1" pageWidth="850" pageHeight="1100" math="0" shadow="0">
      <root>
        <mxCell id="0" />
        <mxCell id="1" parent="0" />
        <mxCell id="e5F_t72mZSm5AG-toKzL-23" value="&lt;font face=&quot;Gloria Hallelujah&quot; data-font-src=&quot;https://fonts.googleapis.com/css?family=Gloria+Hallelujah&quot;&gt;VPC&lt;/font&gt;" style="points=[[0,0],[0.25,0],[0.5,0],[0.75,0],[1,0],[1,0.25],[1,0.5],[1,0.75],[1,1],[0.75,1],[0.5,1],[0.25,1],[0,1],[0,0.75],[0,0.5],[0,0.25]];outlineConnect=0;gradientColor=none;html=1;whiteSpace=wrap;fontSize=16;fontStyle=1;container=1;pointerEvents=0;collapsible=0;recursiveResize=0;shape=mxgraph.aws4.group;grIcon=mxgraph.aws4.group_vpc2;strokeColor=#8C4FFF;fillColor=none;verticalAlign=top;align=left;spacingLeft=30;fontColor=#FFFFFF;dashed=0;hachureGap=4;fontFamily=Architects Daughter;fontSource=https%3A%2F%2Ffonts.googleapis.com%2Fcss%3Ffamily%3DArchitects%2BDaughter;labelBackgroundColor=default;strokeWidth=2;" vertex="1" parent="1">
          <mxGeometry x="520" y="30" width="270" height="440" as="geometry" />
        </mxCell>
        <mxCell id="e5F_t72mZSm5AG-toKzL-38" value="EC2 (SQL)" style="sketch=0;points=[[0,0,0],[0.25,0,0],[0.5,0,0],[0.75,0,0],[1,0,0],[0,1,0],[0.25,1,0],[0.5,1,0],[0.75,1,0],[1,1,0],[0,0.25,0],[0,0.5,0],[0,0.75,0],[1,0.25,0],[1,0.5,0],[1,0.75,0]];outlineConnect=0;fontColor=#FFFFFF;fillColor=#ED7100;strokeColor=#ffffff;dashed=0;verticalLabelPosition=bottom;verticalAlign=top;align=center;html=1;fontSize=14;fontStyle=0;aspect=fixed;shape=mxgraph.aws4.resourceIcon;resIcon=mxgraph.aws4.ec2;hachureGap=4;jiggle=2;curveFitting=1;fontFamily=Gloria Hallelujah;fontSource=https%3A%2F%2Ffonts.googleapis.com%2Fcss%3Ffamily%3DGloria%2BHallelujah;labelBackgroundColor=default;" vertex="1" parent="e5F_t72mZSm5AG-toKzL-23">
          <mxGeometry x="170.5" y="339" width="60" height="60" as="geometry" />
        </mxCell>
        <mxCell id="e5F_t72mZSm5AG-toKzL-39" style="edgeStyle=orthogonalEdgeStyle;curved=1;rounded=0;hachureGap=4;orthogonalLoop=1;jettySize=auto;html=1;exitX=0.5;exitY=1;exitDx=0;exitDy=0;exitPerimeter=0;entryX=0.5;entryY=0;entryDx=0;entryDy=0;entryPerimeter=0;dashed=1;dashPattern=1 2;strokeColor=default;strokeWidth=2;align=center;verticalAlign=middle;fontFamily=Architects Daughter;fontSource=https%3A%2F%2Ffonts.googleapis.com%2Fcss%3Ffamily%3DArchitects%2BDaughter;fontSize=11;fontColor=default;labelBackgroundColor=default;endArrow=oval;endFill=0;flowAnimation=1;" edge="1" parent="e5F_t72mZSm5AG-toKzL-23" source="e5F_t72mZSm5AG-toKzL-26" target="e5F_t72mZSm5AG-toKzL-38">
          <mxGeometry relative="1" as="geometry" />
        </mxCell>
        <mxCell id="e5F_t72mZSm5AG-toKzL-26" value="EKS" style="sketch=0;points=[[0,0,0],[0.25,0,0],[0.5,0,0],[0.75,0,0],[1,0,0],[0,1,0],[0.25,1,0],[0.5,1,0],[0.75,1,0],[1,1,0],[0,0.25,0],[0,0.5,0],[0,0.75,0],[1,0.25,0],[1,0.5,0],[1,0.75,0]];outlineConnect=0;fontColor=#FFFFFF;fillColor=#ED7100;strokeColor=#ffffff;dashed=0;verticalLabelPosition=bottom;verticalAlign=top;align=center;html=1;fontSize=14;fontStyle=0;aspect=fixed;shape=mxgraph.aws4.resourceIcon;resIcon=mxgraph.aws4.eks;hachureGap=4;jiggle=2;curveFitting=1;fontFamily=Gloria Hallelujah;fontSource=https%3A%2F%2Ffonts.googleapis.com%2Fcss%3Ffamily%3DGloria%2BHallelujah;labelBackgroundColor=default;" vertex="1" parent="e5F_t72mZSm5AG-toKzL-23">
          <mxGeometry x="171.5" y="230" width="58" height="58" as="geometry" />
        </mxCell>
        <mxCell id="e5F_t72mZSm5AG-toKzL-35" style="edgeStyle=orthogonalEdgeStyle;curved=1;rounded=0;hachureGap=4;orthogonalLoop=1;jettySize=auto;html=1;dashed=1;dashPattern=1 2;strokeColor=default;strokeWidth=2;align=center;verticalAlign=middle;fontFamily=Architects Daughter;fontSource=https%3A%2F%2Ffonts.googleapis.com%2Fcss%3Ffamily%3DArchitects%2BDaughter;fontSize=11;fontColor=default;labelBackgroundColor=default;endArrow=oval;endFill=0;flowAnimation=1;" edge="1" parent="e5F_t72mZSm5AG-toKzL-23" source="e5F_t72mZSm5AG-toKzL-28" target="e5F_t72mZSm5AG-toKzL-30">
          <mxGeometry relative="1" as="geometry" />
        </mxCell>
        <mxCell id="e5F_t72mZSm5AG-toKzL-36" style="edgeStyle=orthogonalEdgeStyle;curved=1;rounded=0;hachureGap=4;orthogonalLoop=1;jettySize=auto;html=1;entryX=0.5;entryY=0;entryDx=0;entryDy=0;entryPerimeter=0;dashed=1;dashPattern=1 2;strokeColor=default;strokeWidth=2;align=center;verticalAlign=middle;fontFamily=Architects Daughter;fontSource=https%3A%2F%2Ffonts.googleapis.com%2Fcss%3Ffamily%3DArchitects%2BDaughter;fontSize=11;fontColor=default;labelBackgroundColor=default;endArrow=oval;endFill=0;flowAnimation=1;" edge="1" parent="e5F_t72mZSm5AG-toKzL-23" source="e5F_t72mZSm5AG-toKzL-30" target="e5F_t72mZSm5AG-toKzL-26">
          <mxGeometry relative="1" as="geometry" />
        </mxCell>
        <mxCell id="e5F_t72mZSm5AG-toKzL-28" value="ALB" style="sketch=0;outlineConnect=0;fontColor=#FFFFFF;gradientColor=none;fillColor=#8C4FFF;strokeColor=none;dashed=0;verticalLabelPosition=bottom;verticalAlign=top;align=center;html=1;fontSize=14;fontStyle=0;aspect=fixed;pointerEvents=1;shape=mxgraph.aws4.application_load_balancer;hachureGap=4;jiggle=2;curveFitting=1;fontFamily=Gloria Hallelujah;fontSource=https%3A%2F%2Ffonts.googleapis.com%2Fcss%3Ffamily%3DGloria%2BHallelujah;labelBackgroundColor=default;" vertex="1" parent="e5F_t72mZSm5AG-toKzL-23">
          <mxGeometry x="170" y="10" width="60" height="60" as="geometry" />
        </mxCell>
        <mxCell id="e5F_t72mZSm5AG-toKzL-30" value="Network Firewall&lt;div style=&quot;font-size: 14px;&quot;&gt;Endpoint&lt;/div&gt;" style="sketch=0;outlineConnect=0;fontColor=#FFFFFF;gradientColor=none;fillColor=#DD344C;strokeColor=none;dashed=0;verticalLabelPosition=bottom;verticalAlign=top;align=center;html=1;fontSize=14;fontStyle=0;aspect=fixed;pointerEvents=1;shape=mxgraph.aws4.network_firewall_endpoints;hachureGap=4;jiggle=2;curveFitting=1;fontFamily=Gloria Hallelujah;fontSource=https%3A%2F%2Ffonts.googleapis.com%2Fcss%3Ffamily%3DGloria%2BHallelujah;labelBackgroundColor=default;" vertex="1" parent="e5F_t72mZSm5AG-toKzL-23">
          <mxGeometry x="170.5" y="110" width="60" height="60" as="geometry" />
        </mxCell>
        <mxCell id="e5F_t72mZSm5AG-toKzL-11" style="edgeStyle=orthogonalEdgeStyle;rounded=0;hachureGap=4;orthogonalLoop=1;jettySize=auto;html=1;entryX=0;entryY=0.5;entryDx=0;entryDy=0;strokeColor=default;strokeWidth=2;align=center;verticalAlign=middle;fontFamily=Architects Daughter;fontSource=https%3A%2F%2Ffonts.googleapis.com%2Fcss%3Ffamily%3DArchitects%2BDaughter;fontSize=11;fontColor=default;labelBackgroundColor=default;endArrow=classic;flowAnimation=1;" edge="1" parent="e5F_t72mZSm5AG-toKzL-23" source="e5F_t72mZSm5AG-toKzL-6" target="e5F_t72mZSm5AG-toKzL-9">
          <mxGeometry relative="1" as="geometry" />
        </mxCell>
        <mxCell id="e5F_t72mZSm5AG-toKzL-6" value="Repo" style="rounded=1;whiteSpace=wrap;html=1;sketch=1;hachureGap=4;jiggle=2;curveFitting=1;fontFamily=Architects Daughter;fontSource=https%3A%2F%2Ffonts.googleapis.com%2Fcss%3Ffamily%3DArchitects%2BDaughter;fontSize=20;" vertex="1" parent="e5F_t72mZSm5AG-toKzL-23">
          <mxGeometry x="-370" y="234" width="120" height="50" as="geometry" />
        </mxCell>
        <mxCell id="e5F_t72mZSm5AG-toKzL-8" style="edgeStyle=orthogonalEdgeStyle;rounded=0;hachureGap=4;orthogonalLoop=1;jettySize=auto;html=1;entryX=0;entryY=0.5;entryDx=0;entryDy=0;fontFamily=Architects Daughter;fontSource=https%3A%2F%2Ffonts.googleapis.com%2Fcss%3Ffamily%3DArchitects%2BDaughter;flowAnimation=1;strokeWidth=2;" edge="1" parent="e5F_t72mZSm5AG-toKzL-23" source="e5F_t72mZSm5AG-toKzL-7" target="e5F_t72mZSm5AG-toKzL-6">
          <mxGeometry relative="1" as="geometry" />
        </mxCell>
        <mxCell id="e5F_t72mZSm5AG-toKzL-7" value="" style="sketch=0;pointerEvents=1;shadow=0;dashed=0;html=1;strokeColor=none;fillColor=#FFFFFF;aspect=fixed;labelPosition=center;verticalLabelPosition=bottom;verticalAlign=top;align=center;outlineConnect=0;shape=mxgraph.vvd.laptop;hachureGap=4;jiggle=2;curveFitting=1;fontFamily=Architects Daughter;fontSource=https%3A%2F%2Ffonts.googleapis.com%2Fcss%3Ffamily%3DArchitects%2BDaughter;" vertex="1" parent="e5F_t72mZSm5AG-toKzL-23">
          <mxGeometry x="-540" y="224" width="97.22" height="70" as="geometry" />
        </mxCell>
        <mxCell id="e5F_t72mZSm5AG-toKzL-15" style="edgeStyle=orthogonalEdgeStyle;rounded=0;hachureGap=4;orthogonalLoop=1;jettySize=auto;html=1;exitX=0.5;exitY=1;exitDx=0;exitDy=0;strokeColor=default;strokeWidth=2;align=center;verticalAlign=middle;fontFamily=Architects Daughter;fontSource=https%3A%2F%2Ffonts.googleapis.com%2Fcss%3Ffamily%3DArchitects%2BDaughter;fontSize=11;fontColor=default;labelBackgroundColor=default;endArrow=classic;flowAnimation=1;" edge="1" parent="e5F_t72mZSm5AG-toKzL-23" source="e5F_t72mZSm5AG-toKzL-9" target="e5F_t72mZSm5AG-toKzL-14">
          <mxGeometry relative="1" as="geometry" />
        </mxCell>
        <mxCell id="e5F_t72mZSm5AG-toKzL-17" style="edgeStyle=orthogonalEdgeStyle;rounded=0;hachureGap=4;orthogonalLoop=1;jettySize=auto;html=1;entryX=0;entryY=0.5;entryDx=0;entryDy=0;strokeColor=default;strokeWidth=2;align=center;verticalAlign=middle;fontFamily=Architects Daughter;fontSource=https%3A%2F%2Ffonts.googleapis.com%2Fcss%3Ffamily%3DArchitects%2BDaughter;fontSize=11;fontColor=default;labelBackgroundColor=default;endArrow=classic;flowAnimation=1;" edge="1" parent="e5F_t72mZSm5AG-toKzL-23" source="e5F_t72mZSm5AG-toKzL-9" target="e5F_t72mZSm5AG-toKzL-13">
          <mxGeometry relative="1" as="geometry" />
        </mxCell>
        <mxCell id="e5F_t72mZSm5AG-toKzL-9" value="Pipeline" style="rounded=1;whiteSpace=wrap;html=1;sketch=1;hachureGap=4;jiggle=2;curveFitting=1;fontFamily=Architects Daughter;fontSource=https%3A%2F%2Ffonts.googleapis.com%2Fcss%3Ffamily%3DArchitects%2BDaughter;fontSize=20;" vertex="1" parent="e5F_t72mZSm5AG-toKzL-23">
          <mxGeometry x="-180" y="234" width="120" height="50" as="geometry" />
        </mxCell>
        <mxCell id="e5F_t72mZSm5AG-toKzL-21" style="edgeStyle=orthogonalEdgeStyle;curved=1;rounded=0;hachureGap=4;orthogonalLoop=1;jettySize=auto;html=1;entryX=0.5;entryY=1;entryDx=0;entryDy=0;strokeColor=default;strokeWidth=2;align=center;verticalAlign=middle;fontFamily=Architects Daughter;fontSource=https%3A%2F%2Ffonts.googleapis.com%2Fcss%3Ffamily%3DArchitects%2BDaughter;fontSize=11;fontColor=default;labelBackgroundColor=default;endArrow=classic;flowAnimation=1;" edge="1" parent="e5F_t72mZSm5AG-toKzL-23" source="e5F_t72mZSm5AG-toKzL-14" target="e5F_t72mZSm5AG-toKzL-13">
          <mxGeometry relative="1" as="geometry" />
        </mxCell>
        <mxCell id="e5F_t72mZSm5AG-toKzL-14" value="Secret Vault" style="rounded=1;whiteSpace=wrap;html=1;sketch=1;hachureGap=4;jiggle=2;curveFitting=1;fontFamily=Architects Daughter;fontSource=https%3A%2F%2Ffonts.googleapis.com%2Fcss%3Ffamily%3DArchitects%2BDaughter;fontSize=20;" vertex="1" parent="e5F_t72mZSm5AG-toKzL-23">
          <mxGeometry x="-180" y="344" width="120" height="50" as="geometry" />
        </mxCell>
        <mxCell id="e5F_t72mZSm5AG-toKzL-37" value="" style="edgeStyle=orthogonalEdgeStyle;curved=1;rounded=0;hachureGap=4;orthogonalLoop=1;jettySize=auto;html=1;dashed=1;dashPattern=1 2;strokeColor=default;strokeWidth=2;align=center;verticalAlign=middle;fontFamily=Architects Daughter;fontSource=https%3A%2F%2Ffonts.googleapis.com%2Fcss%3Ffamily%3DArchitects%2BDaughter;fontSize=11;fontColor=default;labelBackgroundColor=default;endArrow=oval;endFill=0;flowAnimation=1;" edge="1" parent="e5F_t72mZSm5AG-toKzL-23" source="e5F_t72mZSm5AG-toKzL-13" target="e5F_t72mZSm5AG-toKzL-26">
          <mxGeometry relative="1" as="geometry" />
        </mxCell>
        <mxCell id="e5F_t72mZSm5AG-toKzL-13" value="Runtime" style="rounded=1;whiteSpace=wrap;html=1;sketch=1;hachureGap=4;jiggle=2;curveFitting=1;fontFamily=Architects Daughter;fontSource=https%3A%2F%2Ffonts.googleapis.com%2Fcss%3Ffamily%3DArchitects%2BDaughter;fontSize=20;" vertex="1" parent="e5F_t72mZSm5AG-toKzL-23">
          <mxGeometry x="30" y="234" width="90" height="50" as="geometry" />
        </mxCell>
        <mxCell id="e5F_t72mZSm5AG-toKzL-51" value="" style="image;sketch=0;aspect=fixed;html=1;points=[];align=center;fontSize=12;image=img/lib/mscae/Docker.svg;hachureGap=4;jiggle=2;curveFitting=1;fontFamily=Architects Daughter;fontSource=https%3A%2F%2Ffonts.googleapis.com%2Fcss%3Ffamily%3DArchitects%2BDaughter;fontColor=default;labelBackgroundColor=default;" vertex="1" parent="e5F_t72mZSm5AG-toKzL-23">
          <mxGeometry x="10" y="199.5" width="50" height="41" as="geometry" />
        </mxCell>
        <mxCell id="e5F_t72mZSm5AG-toKzL-62" value="Grafana" style="rounded=1;whiteSpace=wrap;html=1;sketch=1;hachureGap=4;jiggle=2;curveFitting=1;fontFamily=Architects Daughter;fontSource=https%3A%2F%2Ffonts.googleapis.com%2Fcss%3Ffamily%3DArchitects%2BDaughter;fontSize=20;" vertex="1" parent="1">
          <mxGeometry x="690" y="540" width="100" height="50" as="geometry" />
        </mxCell>
        <mxCell id="e5F_t72mZSm5AG-toKzL-29" value="Network Firewall" style="sketch=0;points=[[0,0,0],[0.25,0,0],[0.5,0,0],[0.75,0,0],[1,0,0],[0,1,0],[0.25,1,0],[0.5,1,0],[0.75,1,0],[1,1,0],[0,0.25,0],[0,0.5,0],[0,0.75,0],[1,0.25,0],[1,0.5,0],[1,0.75,0]];outlineConnect=0;fontColor=#FFFFFF;fillColor=#DD344C;strokeColor=#ffffff;dashed=0;verticalLabelPosition=bottom;verticalAlign=top;align=center;html=1;fontSize=14;fontStyle=0;aspect=fixed;shape=mxgraph.aws4.resourceIcon;resIcon=mxgraph.aws4.network_firewall;hachureGap=4;jiggle=2;curveFitting=1;fontFamily=Gloria Hallelujah;fontSource=https%3A%2F%2Ffonts.googleapis.com%2Fcss%3Ffamily%3DGloria%2BHallelujah;labelBackgroundColor=default;" vertex="1" parent="1">
          <mxGeometry x="840" y="146" width="48" height="48" as="geometry" />
        </mxCell>
        <mxCell id="e5F_t72mZSm5AG-toKzL-34" style="edgeStyle=orthogonalEdgeStyle;curved=1;rounded=0;hachureGap=4;orthogonalLoop=1;jettySize=auto;html=1;dashed=1;dashPattern=1 2;strokeColor=default;strokeWidth=2;align=center;verticalAlign=middle;fontFamily=Architects Daughter;fontSource=https%3A%2F%2Ffonts.googleapis.com%2Fcss%3Ffamily%3DArchitects%2BDaughter;fontSize=11;fontColor=default;labelBackgroundColor=default;endArrow=oval;endFill=0;flowAnimation=1;" edge="1" parent="1" source="e5F_t72mZSm5AG-toKzL-30" target="e5F_t72mZSm5AG-toKzL-29">
          <mxGeometry relative="1" as="geometry" />
        </mxCell>
        <mxCell id="e5F_t72mZSm5AG-toKzL-40" value="IAM" style="sketch=0;points=[[0,0,0],[0.25,0,0],[0.5,0,0],[0.75,0,0],[1,0,0],[0,1,0],[0.25,1,0],[0.5,1,0],[0.75,1,0],[1,1,0],[0,0.25,0],[0,0.5,0],[0,0.75,0],[1,0.25,0],[1,0.5,0],[1,0.75,0]];outlineConnect=0;fontColor=#FFFFFF;fillColor=#DD344C;strokeColor=#ffffff;dashed=0;verticalLabelPosition=bottom;verticalAlign=top;align=center;html=1;fontSize=14;fontStyle=0;aspect=fixed;shape=mxgraph.aws4.resourceIcon;resIcon=mxgraph.aws4.identity_and_access_management;hachureGap=4;jiggle=2;curveFitting=1;fontFamily=Gloria Hallelujah;fontSource=https%3A%2F%2Ffonts.googleapis.com%2Fcss%3Ffamily%3DGloria%2BHallelujah;labelBackgroundColor=default;" vertex="1" parent="1">
          <mxGeometry x="520" y="-60" width="50" height="50" as="geometry" />
        </mxCell>
        <mxCell id="e5F_t72mZSm5AG-toKzL-41" value="Cloud Storage" style="shape=cylinder3;whiteSpace=wrap;html=1;boundedLbl=1;backgroundOutline=1;size=15;sketch=1;hachureGap=4;jiggle=2;curveFitting=1;fontFamily=Architects Daughter;fontSource=https%3A%2F%2Ffonts.googleapis.com%2Fcss%3Ffamily%3DArchitects%2BDaughter;fontSize=16;fontColor=default;labelBackgroundColor=default;" vertex="1" parent="1">
          <mxGeometry x="824" y="270" width="80" height="100" as="geometry" />
        </mxCell>
        <mxCell id="e5F_t72mZSm5AG-toKzL-42" style="edgeStyle=orthogonalEdgeStyle;curved=1;rounded=0;hachureGap=4;orthogonalLoop=1;jettySize=auto;html=1;entryX=0;entryY=0.5;entryDx=0;entryDy=0;entryPerimeter=0;dashed=1;dashPattern=1 2;strokeColor=default;strokeWidth=2;align=center;verticalAlign=middle;fontFamily=Architects Daughter;fontSource=https%3A%2F%2Ffonts.googleapis.com%2Fcss%3Ffamily%3DArchitects%2BDaughter;fontSize=11;fontColor=default;labelBackgroundColor=default;endArrow=oval;endFill=0;flowAnimation=1;exitX=1;exitY=0.5;exitDx=0;exitDy=0;exitPerimeter=0;" edge="1" parent="1" source="e5F_t72mZSm5AG-toKzL-26" target="e5F_t72mZSm5AG-toKzL-41">
          <mxGeometry relative="1" as="geometry" />
        </mxCell>
        <mxCell id="e5F_t72mZSm5AG-toKzL-43" value="S3" style="sketch=0;points=[[0,0,0],[0.25,0,0],[0.5,0,0],[0.75,0,0],[1,0,0],[0,1,0],[0.25,1,0],[0.5,1,0],[0.75,1,0],[1,1,0],[0,0.25,0],[0,0.5,0],[0,0.75,0],[1,0.25,0],[1,0.5,0],[1,0.75,0]];outlineConnect=0;fontColor=#FFFFFF;fillColor=#7AA116;strokeColor=#ffffff;dashed=0;verticalLabelPosition=bottom;verticalAlign=top;align=center;html=1;fontSize=16;fontStyle=0;aspect=fixed;shape=mxgraph.aws4.resourceIcon;resIcon=mxgraph.aws4.s3;hachureGap=4;jiggle=2;curveFitting=1;fontFamily=Gloria Hallelujah;fontSource=https%3A%2F%2Ffonts.googleapis.com%2Fcss%3Ffamily%3DGloria%2BHallelujah;labelBackgroundColor=default;" vertex="1" parent="1">
          <mxGeometry x="888" y="350" width="50" height="50" as="geometry" />
        </mxCell>
        <mxCell id="e5F_t72mZSm5AG-toKzL-47" style="edgeStyle=orthogonalEdgeStyle;curved=1;rounded=0;hachureGap=4;orthogonalLoop=1;jettySize=auto;html=1;dashed=1;dashPattern=1 2;strokeColor=default;strokeWidth=2;align=center;verticalAlign=middle;fontFamily=Architects Daughter;fontSource=https%3A%2F%2Ffonts.googleapis.com%2Fcss%3Ffamily%3DArchitects%2BDaughter;fontSize=11;fontColor=default;labelBackgroundColor=default;endArrow=oval;endFill=0;flowAnimation=1;" edge="1" parent="1" source="e5F_t72mZSm5AG-toKzL-45" target="e5F_t72mZSm5AG-toKzL-28">
          <mxGeometry relative="1" as="geometry" />
        </mxCell>
        <mxCell id="e5F_t72mZSm5AG-toKzL-45" value="" style="sketch=0;pointerEvents=1;shadow=0;dashed=0;html=1;strokeColor=none;fillColor=#FFFFFF;aspect=fixed;labelPosition=center;verticalLabelPosition=bottom;verticalAlign=top;align=center;outlineConnect=0;shape=mxgraph.vvd.laptop;hachureGap=4;jiggle=2;curveFitting=1;fontFamily=Architects Daughter;fontSource=https%3A%2F%2Ffonts.googleapis.com%2Fcss%3Ffamily%3DArchitects%2BDaughter;" vertex="1" parent="1">
          <mxGeometry x="640" y="-73" width="65.55" height="47.2" as="geometry" />
        </mxCell>
        <mxCell id="e5F_t72mZSm5AG-toKzL-48" style="edgeStyle=orthogonalEdgeStyle;curved=1;rounded=0;hachureGap=4;orthogonalLoop=1;jettySize=auto;html=1;dashed=1;dashPattern=1 2;strokeColor=default;strokeWidth=2;align=center;verticalAlign=middle;fontFamily=Architects Daughter;fontSource=https%3A%2F%2Ffonts.googleapis.com%2Fcss%3Ffamily%3DArchitects%2BDaughter;fontSize=11;fontColor=default;labelBackgroundColor=default;endArrow=oval;endFill=0;flowAnimation=1;" edge="1" parent="1" source="e5F_t72mZSm5AG-toKzL-46" target="e5F_t72mZSm5AG-toKzL-28">
          <mxGeometry relative="1" as="geometry" />
        </mxCell>
        <mxCell id="e5F_t72mZSm5AG-toKzL-46" value="" style="sketch=0;outlineConnect=0;fontColor=#232F3E;gradientColor=none;fillColor=#FFFFFF;strokeColor=none;dashed=0;verticalLabelPosition=bottom;verticalAlign=top;align=center;html=1;fontSize=12;fontStyle=0;aspect=fixed;pointerEvents=1;shape=mxgraph.aws4.mobile_client;hachureGap=4;jiggle=2;curveFitting=1;fontFamily=Architects Daughter;fontSource=https%3A%2F%2Ffonts.googleapis.com%2Fcss%3Ffamily%3DArchitects%2BDaughter;labelBackgroundColor=default;" vertex="1" parent="1">
          <mxGeometry x="750" y="-74.39999999999999" width="26.28" height="50" as="geometry" />
        </mxCell>
        <mxCell id="e5F_t72mZSm5AG-toKzL-49" value="Developer" style="text;html=1;align=center;verticalAlign=middle;whiteSpace=wrap;rounded=0;fontFamily=Gloria Hallelujah;fontSource=https%3A%2F%2Ffonts.googleapis.com%2Fcss%3Ffamily%3DGloria%2BHallelujah;fontSize=14;fontColor=default;labelBackgroundColor=default;" vertex="1" parent="1">
          <mxGeometry y="330" width="60" height="30" as="geometry" />
        </mxCell>
        <mxCell id="e5F_t72mZSm5AG-toKzL-50" value="Application users" style="text;html=1;align=center;verticalAlign=middle;whiteSpace=wrap;rounded=0;fontFamily=Gloria Hallelujah;fontSource=https%3A%2F%2Ffonts.googleapis.com%2Fcss%3Ffamily%3DGloria%2BHallelujah;fontSize=14;fontColor=default;labelBackgroundColor=default;" vertex="1" parent="1">
          <mxGeometry x="690" y="-113" width="60" height="30" as="geometry" />
        </mxCell>
        <mxCell id="e5F_t72mZSm5AG-toKzL-54" value="" style="shape=image;verticalLabelPosition=bottom;labelBackgroundColor=default;verticalAlign=top;aspect=fixed;imageAspect=0;image=https://upload.wikimedia.org/wikipedia/commons/thumb/e/e9/Jenkins_logo.svg/1200px-Jenkins_logo.svg.png;" vertex="1" parent="1">
          <mxGeometry x="318.26" y="220" width="43.08" height="59.49" as="geometry" />
        </mxCell>
        <mxCell id="e5F_t72mZSm5AG-toKzL-56" value="" style="shape=image;verticalLabelPosition=bottom;labelBackgroundColor=default;verticalAlign=top;aspect=fixed;imageAspect=0;image=https://cdn.iconscout.com/icon/free/png-256/free-bitbucket-3521305-2944724.png;" vertex="1" parent="1">
          <mxGeometry x="130" y="226.74" width="46" height="46" as="geometry" />
        </mxCell>
        <mxCell id="e5F_t72mZSm5AG-toKzL-60" style="edgeStyle=orthogonalEdgeStyle;curved=1;rounded=0;hachureGap=4;orthogonalLoop=1;jettySize=auto;html=1;entryX=0.5;entryY=0;entryDx=0;entryDy=0;dashed=1;dashPattern=1 2;strokeColor=default;strokeWidth=2;align=center;verticalAlign=middle;fontFamily=Architects Daughter;fontSource=https%3A%2F%2Ffonts.googleapis.com%2Fcss%3Ffamily%3DArchitects%2BDaughter;fontSize=11;fontColor=default;labelBackgroundColor=default;endArrow=oval;endFill=0;flowAnimation=1;" edge="1" parent="1" source="e5F_t72mZSm5AG-toKzL-57" target="e5F_t72mZSm5AG-toKzL-6">
          <mxGeometry relative="1" as="geometry" />
        </mxCell>
        <mxCell id="e5F_t72mZSm5AG-toKzL-57" value="Jira&lt;div&gt;Board&lt;/div&gt;" style="rounded=1;whiteSpace=wrap;html=1;sketch=1;hachureGap=4;jiggle=2;curveFitting=1;fontFamily=Architects Daughter;fontSource=https%3A%2F%2Ffonts.googleapis.com%2Fcss%3Ffamily%3DArchitects%2BDaughter;fontSize=20;" vertex="1" parent="1">
          <mxGeometry x="-30" y="150" width="120" height="50" as="geometry" />
        </mxCell>
        <mxCell id="e5F_t72mZSm5AG-toKzL-58" value="" style="shape=image;verticalLabelPosition=bottom;labelBackgroundColor=default;verticalAlign=top;aspect=fixed;imageAspect=0;image=https://seeklogo.com/images/J/jira-logo-C71F8C0324-seeklogo.com.png;" vertex="1" parent="1">
          <mxGeometry x="-60" y="110" width="58" height="60" as="geometry" />
        </mxCell>
        <mxCell id="e5F_t72mZSm5AG-toKzL-59" style="edgeStyle=orthogonalEdgeStyle;rounded=0;hachureGap=4;orthogonalLoop=1;jettySize=auto;html=1;entryX=0.5;entryY=1;entryDx=0;entryDy=0;strokeColor=default;strokeWidth=2;align=center;verticalAlign=middle;fontFamily=Architects Daughter;fontSource=https%3A%2F%2Ffonts.googleapis.com%2Fcss%3Ffamily%3DArchitects%2BDaughter;fontSize=11;fontColor=default;labelBackgroundColor=default;endArrow=classic;flowAnimation=1;" edge="1" parent="1" source="e5F_t72mZSm5AG-toKzL-7" target="e5F_t72mZSm5AG-toKzL-57">
          <mxGeometry relative="1" as="geometry" />
        </mxCell>
        <mxCell id="e5F_t72mZSm5AG-toKzL-12" value="Registry" style="rounded=1;whiteSpace=wrap;html=1;sketch=1;hachureGap=4;jiggle=2;curveFitting=1;fontFamily=Architects Daughter;fontSource=https%3A%2F%2Ffonts.googleapis.com%2Fcss%3Ffamily%3DArchitects%2BDaughter;fontSize=20;" vertex="1" parent="1">
          <mxGeometry x="340" y="154" width="120" height="50" as="geometry" />
        </mxCell>
        <mxCell id="e5F_t72mZSm5AG-toKzL-16" style="edgeStyle=orthogonalEdgeStyle;rounded=0;hachureGap=4;orthogonalLoop=1;jettySize=auto;html=1;entryX=0.5;entryY=1;entryDx=0;entryDy=0;strokeColor=default;strokeWidth=2;align=center;verticalAlign=middle;fontFamily=Architects Daughter;fontSource=https%3A%2F%2Ffonts.googleapis.com%2Fcss%3Ffamily%3DArchitects%2BDaughter;fontSize=11;fontColor=default;labelBackgroundColor=default;endArrow=classic;flowAnimation=1;" edge="1" parent="1" source="e5F_t72mZSm5AG-toKzL-9" target="e5F_t72mZSm5AG-toKzL-12">
          <mxGeometry relative="1" as="geometry" />
        </mxCell>
        <mxCell id="e5F_t72mZSm5AG-toKzL-53" value="" style="shape=image;verticalLabelPosition=bottom;labelBackgroundColor=default;verticalAlign=top;aspect=fixed;imageAspect=0;image=https://static-00.iconduck.com/assets.00/harbor-icon-2034x2048-hl34ycc9.png;" vertex="1" parent="1">
          <mxGeometry x="310" y="110" width="59.6" height="60" as="geometry" />
        </mxCell>
        <mxCell id="e5F_t72mZSm5AG-toKzL-20" style="edgeStyle=orthogonalEdgeStyle;rounded=0;hachureGap=4;orthogonalLoop=1;jettySize=auto;html=1;strokeColor=default;strokeWidth=2;align=center;verticalAlign=middle;fontFamily=Architects Daughter;fontSource=https%3A%2F%2Ffonts.googleapis.com%2Fcss%3Ffamily%3DArchitects%2BDaughter;fontSize=11;fontColor=default;labelBackgroundColor=default;endArrow=classic;flowAnimation=1;curved=1;" edge="1" parent="1" source="e5F_t72mZSm5AG-toKzL-12" target="e5F_t72mZSm5AG-toKzL-13">
          <mxGeometry relative="1" as="geometry" />
        </mxCell>
        <mxCell id="e5F_t72mZSm5AG-toKzL-63" style="edgeStyle=orthogonalEdgeStyle;curved=1;rounded=0;hachureGap=4;orthogonalLoop=1;jettySize=auto;html=1;exitX=1;exitY=0.5;exitDx=0;exitDy=0;entryX=0;entryY=0.5;entryDx=0;entryDy=0;dashed=1;dashPattern=1 2;strokeColor=default;strokeWidth=2;align=center;verticalAlign=middle;fontFamily=Architects Daughter;fontSource=https%3A%2F%2Ffonts.googleapis.com%2Fcss%3Ffamily%3DArchitects%2BDaughter;fontSize=11;fontColor=default;labelBackgroundColor=default;endArrow=oval;endFill=0;flowAnimation=1;" edge="1" parent="1" source="e5F_t72mZSm5AG-toKzL-61" target="e5F_t72mZSm5AG-toKzL-62">
          <mxGeometry relative="1" as="geometry" />
        </mxCell>
        <mxCell id="e5F_t72mZSm5AG-toKzL-61" value="Prometheus" style="rounded=1;whiteSpace=wrap;html=1;sketch=1;hachureGap=4;jiggle=2;curveFitting=1;fontFamily=Architects Daughter;fontSource=https%3A%2F%2Ffonts.googleapis.com%2Fcss%3Ffamily%3DArchitects%2BDaughter;fontSize=20;" vertex="1" parent="1">
          <mxGeometry x="520" y="540" width="130" height="50" as="geometry" />
        </mxCell>
        <mxCell id="e5F_t72mZSm5AG-toKzL-64" style="edgeStyle=orthogonalEdgeStyle;curved=1;rounded=0;hachureGap=4;orthogonalLoop=1;jettySize=auto;html=1;entryX=0;entryY=0.75;entryDx=0;entryDy=0;entryPerimeter=0;dashed=1;dashPattern=1 2;strokeColor=default;strokeWidth=2;align=center;verticalAlign=middle;fontFamily=Architects Daughter;fontSource=https%3A%2F%2Ffonts.googleapis.com%2Fcss%3Ffamily%3DArchitects%2BDaughter;fontSize=11;fontColor=default;labelBackgroundColor=default;endArrow=oval;endFill=0;flowAnimation=1;exitX=0.75;exitY=0;exitDx=0;exitDy=0;" edge="1" parent="1" source="e5F_t72mZSm5AG-toKzL-61" target="e5F_t72mZSm5AG-toKzL-26">
          <mxGeometry relative="1" as="geometry" />
        </mxCell>
        <mxCell id="e5F_t72mZSm5AG-toKzL-65" value="" style="shape=image;verticalLabelPosition=bottom;labelBackgroundColor=default;verticalAlign=top;aspect=fixed;imageAspect=0;image=https://upload.wikimedia.org/wikipedia/commons/thumb/3/38/Prometheus_software_logo.svg/2066px-Prometheus_software_logo.svg.png;" vertex="1" parent="1">
          <mxGeometry x="480" y="510" width="50.34" height="49.92" as="geometry" />
        </mxCell>
        <mxCell id="e5F_t72mZSm5AG-toKzL-66" value="" style="shape=image;verticalLabelPosition=bottom;labelBackgroundColor=default;verticalAlign=top;aspect=fixed;imageAspect=0;image=https://cdn.icon-icons.com/icons2/2699/PNG/512/grafana_logo_icon_171048.png;" vertex="1" parent="1">
          <mxGeometry x="659.5899999999999" y="510" width="45.96" height="45.96" as="geometry" />
        </mxCell>
        <mxCell id="e5F_t72mZSm5AG-toKzL-69" style="edgeStyle=orthogonalEdgeStyle;rounded=0;hachureGap=4;orthogonalLoop=1;jettySize=auto;html=1;entryX=0.5;entryY=1;entryDx=0;entryDy=0;strokeColor=default;strokeWidth=2;align=center;verticalAlign=middle;fontFamily=Architects Daughter;fontSource=https%3A%2F%2Ffonts.googleapis.com%2Fcss%3Ffamily%3DArchitects%2BDaughter;fontSize=11;fontColor=default;labelBackgroundColor=default;endArrow=classic;flowAnimation=1;curved=1;" edge="1" parent="1" source="e5F_t72mZSm5AG-toKzL-67" target="e5F_t72mZSm5AG-toKzL-62">
          <mxGeometry relative="1" as="geometry" />
        </mxCell>
        <mxCell id="e5F_t72mZSm5AG-toKzL-67" value="" style="sketch=0;pointerEvents=1;shadow=0;dashed=0;html=1;strokeColor=none;fillColor=#FFFFFF;aspect=fixed;labelPosition=center;verticalLabelPosition=bottom;verticalAlign=top;align=center;outlineConnect=0;shape=mxgraph.vvd.laptop;hachureGap=4;jiggle=2;curveFitting=1;fontFamily=Architects Daughter;fontSource=https%3A%2F%2Ffonts.googleapis.com%2Fcss%3Ffamily%3DArchitects%2BDaughter;" vertex="1" parent="1">
          <mxGeometry x="610" y="610" width="69.44" height="50" as="geometry" />
        </mxCell>
        <mxCell id="e5F_t72mZSm5AG-toKzL-68" value="SRE" style="text;html=1;align=center;verticalAlign=middle;whiteSpace=wrap;rounded=0;fontFamily=Gloria Hallelujah;fontSource=https%3A%2F%2Ffonts.googleapis.com%2Fcss%3Ffamily%3DGloria%2BHallelujah;fontSize=14;fontColor=default;labelBackgroundColor=default;" vertex="1" parent="1">
          <mxGeometry x="614.72" y="660" width="60" height="30" as="geometry" />
        </mxCell>
        <mxCell id="e5F_t72mZSm5AG-toKzL-70" value="" style="sketch=0;pointerEvents=1;shadow=0;dashed=0;html=1;strokeColor=none;fillColor=#FFFFFF;aspect=fixed;labelPosition=center;verticalLabelPosition=bottom;verticalAlign=top;align=center;outlineConnect=0;shape=mxgraph.vvd.laptop;hachureGap=4;jiggle=2;curveFitting=1;fontFamily=Architects Daughter;fontSource=https%3A%2F%2Ffonts.googleapis.com%2Fcss%3Ffamily%3DArchitects%2BDaughter;" vertex="1" parent="1">
          <mxGeometry x="400" y="-60" width="69.44" height="50" as="geometry" />
        </mxCell>
        <mxCell id="e5F_t72mZSm5AG-toKzL-71" value="Cloud&lt;div&gt;Engineer&lt;/div&gt;" style="text;html=1;align=center;verticalAlign=middle;whiteSpace=wrap;rounded=0;fontFamily=Gloria Hallelujah;fontSource=https%3A%2F%2Ffonts.googleapis.com%2Fcss%3Ffamily%3DGloria%2BHallelujah;fontSize=14;fontColor=default;labelBackgroundColor=default;" vertex="1" parent="1">
          <mxGeometry x="404.72" y="-4" width="60" height="30" as="geometry" />
        </mxCell>
        <mxCell id="e5F_t72mZSm5AG-toKzL-72" style="edgeStyle=orthogonalEdgeStyle;rounded=0;hachureGap=4;orthogonalLoop=1;jettySize=auto;html=1;entryX=0;entryY=0.5;entryDx=0;entryDy=0;entryPerimeter=0;strokeColor=default;strokeWidth=2;align=center;verticalAlign=middle;fontFamily=Architects Daughter;fontSource=https%3A%2F%2Ffonts.googleapis.com%2Fcss%3Ffamily%3DArchitects%2BDaughter;fontSize=11;fontColor=default;labelBackgroundColor=default;endArrow=classic;flowAnimation=1;" edge="1" parent="1" source="e5F_t72mZSm5AG-toKzL-70" target="e5F_t72mZSm5AG-toKzL-40">
          <mxGeometry relative="1" as="geometry" />
        </mxCell>
        <mxCell id="e5F_t72mZSm5AG-toKzL-73" value="" style="shape=curlyBracket;whiteSpace=wrap;html=1;rounded=1;labelPosition=left;verticalLabelPosition=middle;align=right;verticalAlign=middle;sketch=1;hachureGap=4;jiggle=2;curveFitting=1;fontFamily=Architects Daughter;fontSource=https%3A%2F%2Ffonts.googleapis.com%2Fcss%3Ffamily%3DArchitects%2BDaughter;fontSize=11;fontColor=default;labelBackgroundColor=default;rotation=-90;" vertex="1" parent="1">
          <mxGeometry x="295.54" y="150" width="20" height="691.08" as="geometry" />
        </mxCell>
        <mxCell id="e5F_t72mZSm5AG-toKzL-74" value="Software Development Lifecycle" style="text;html=1;align=center;verticalAlign=middle;whiteSpace=wrap;rounded=0;fontFamily=Gloria Hallelujah;fontSource=https%3A%2F%2Ffonts.googleapis.com%2Fcss%3Ffamily%3DGloria%2BHallelujah;fontSize=16;fontColor=default;labelBackgroundColor=default;" vertex="1" parent="1">
          <mxGeometry x="180.54" y="496.87" width="250" height="72.23" as="geometry" />
        </mxCell>
        <mxCell id="e5F_t72mZSm5AG-toKzL-75" value="" style="shape=curlyBracket;whiteSpace=wrap;html=1;rounded=1;labelPosition=left;verticalLabelPosition=middle;align=right;verticalAlign=middle;sketch=1;hachureGap=4;jiggle=2;curveFitting=1;fontFamily=Architects Daughter;fontSource=https%3A%2F%2Ffonts.googleapis.com%2Fcss%3Ffamily%3DArchitects%2BDaughter;fontSize=11;fontColor=default;labelBackgroundColor=default;rotation=-90;" vertex="1" parent="1">
          <mxGeometry x="675" y="460" width="20" height="491.08" as="geometry" />
        </mxCell>
        <mxCell id="e5F_t72mZSm5AG-toKzL-76" value="Cloud Adoption Framework" style="text;html=1;align=center;verticalAlign=middle;whiteSpace=wrap;rounded=0;fontFamily=Gloria Hallelujah;fontSource=https%3A%2F%2Ffonts.googleapis.com%2Fcss%3Ffamily%3DGloria%2BHallelujah;fontSize=16;fontColor=default;labelBackgroundColor=default;" vertex="1" parent="1">
          <mxGeometry x="560" y="720" width="250" height="40" as="geometry" />
        </mxCell>
        <mxCell id="e5F_t72mZSm5AG-toKzL-77" value="" style="shape=curlyBracket;whiteSpace=wrap;html=1;rounded=1;labelPosition=left;verticalLabelPosition=middle;align=right;verticalAlign=middle;sketch=1;hachureGap=4;jiggle=2;curveFitting=1;fontFamily=Architects Daughter;fontSource=https%3A%2F%2Ffonts.googleapis.com%2Fcss%3Ffamily%3DArchitects%2BDaughter;fontSize=11;fontColor=default;labelBackgroundColor=default;rotation=-180;" vertex="1" parent="1">
          <mxGeometry x="959.86" y="260" width="20" height="210" as="geometry" />
        </mxCell>
        <mxCell id="e5F_t72mZSm5AG-toKzL-78" value="Data Management&lt;div&gt;Lifecycle&lt;/div&gt;" style="text;html=1;align=center;verticalAlign=middle;whiteSpace=wrap;rounded=0;fontFamily=Gloria Hallelujah;fontSource=https%3A%2F%2Ffonts.googleapis.com%2Fcss%3Ffamily%3DGloria%2BHallelujah;fontSize=16;fontColor=default;labelBackgroundColor=default;rotation=90;" vertex="1" parent="1">
          <mxGeometry x="930" y="345" width="163.72" height="40" as="geometry" />
        </mxCell>
      </root>
    </mxGraphModel>
  </diagram>
</mxfile>
